<!-- Generated by IcoMoon.io -->
<svg version="1.1" xmlns="http://www.w3.org/2000/svg" width="1057" height="1024" viewBox="0 0 1057 1024">
<g id="icomoon-ignore">
</g>
<path d="M500.713 198.393h-352.764c-49.835 0-90.15 40.596-90.15 90.151v239.375c0 47.315 36.676 86.511 83.431 90.152v65.79c0 8.4 5.040 16.239 12.879 19.321 2.52 1.12 5.319 1.678 8.119 1.678 5.599 0 10.919-2.24 14.838-6.157l80.352-80.354h208.579v30.519c0 49.836 40.597 90.429 90.429 90.429h243.573l80.354 80.351c3.918 3.921 9.517 6.161 14.838 6.161 2.798 0 5.318-0.558 8.119-1.678 7.839-3.363 12.879-10.92 12.879-19.321v-66.071c46.473-3.64 83.43-42.555 83.43-90.152v-239.375c0-49.832-40.597-90.43-90.429-90.43h-318.048v-30.517c0-49.555-40.597-89.871-90.429-89.871zM248.458 576.353c-5.599 0-10.919 2.24-14.838 6.161l-50.674 50.675v-35.837c0-11.479-9.519-20.999-20.998-20.999h-13.998c-26.597 0-48.155-21.557-48.155-48.154v-239.376c0-26.597 21.558-48.155 48.155-48.155h352.764c26.594 0 48.154 21.558 48.154 48.155v239.376c0 26.598-21.56 48.154-48.154 48.154h-252.255zM908.909 361.056c26.598 0 48.435 21.557 48.435 48.435v239.375c0 26.598-21.56 48.435-48.435 48.435h-13.999c-11.479 0-20.999 9.52-20.999 20.999v35.833l-50.675-50.675c-3.918-3.918-9.239-6.157-14.838-6.157h-252.254c-26.594 0-48.432-21.557-48.432-48.435v-30.796c46.473-3.64 83.149-42.555 83.149-89.871v-166.862l318.048-0.281zM324.893 492.64c-5.6 0-10.919 2.24-14.838 6.161s-6.16 9.239-6.16 14.838c0 5.599 2.24 10.92 6.16 14.838 3.919 3.921 9.239 6.161 14.838 6.161 5.598 0 10.919-2.24 14.837-6.161 3.921-3.918 6.161-9.239 6.161-14.838s-2.24-10.917-6.161-14.838c-3.918-3.921-9.239-6.161-14.837-6.161zM324.33 282.105c-35.836 0-65.233 29.117-65.233 65.233v1.401c0 11.479 9.519 20.999 20.998 20.999s20.998-9.52 20.998-20.999v-1.401c0-12.599 10.359-23.237 23.238-23.237s23.239 10.358 23.239 23.237c0 12.318-4.76 23.796-13.441 32.477-19.317 19.317-29.956 45.076-29.956 72.512 0 11.479 9.519 20.999 20.998 20.999s20.998-9.52 20.998-20.999c0-16.239 6.157-31.358 17.636-42.836 16.519-16.519 25.759-38.635 25.759-62.153 0-36.116-29.395-65.233-65.233-65.233z"></path>
</svg>
