<!-- Generated by IcoMoon.io -->
<svg version="1.1" xmlns="http://www.w3.org/2000/svg" width="1024" height="1024" viewBox="0 0 1024 1024">
<g id="icomoon-ignore">
</g>
<path fill="#000" d="M960.355 523.504c-1.414-3.718-2.118-7.606-2.118-11.51s0.704-7.808 2.118-11.51l37.392-98.166c3.226-8.48 4.79-17.306 4.79-25.984 0.010-24.083-11.962-47.315-33.069-61.103l-87.971-57.438c-6.63-4.326-11.459-10.98-13.523-18.642l-27.453-101.404c-8.669-31.952-37.616-53.916-70.432-53.93-1.229 0-2.461 0.040-3.702 0.106l1.85-0.106-108.31 5.372c-7.395 0-14.554-2.514-20.323-7.144l-81.805-65.888c-13.325-10.758-29.597-16.17-45.77-16.156-16.179-0.014-32.454 5.398-45.805 16.156l0.013 0.014-81.808 65.878c-5.754 4.63-12.938 7.144-20.323 7.144l-1.19-0.026-105.107-5.24c-1.442-0.078-2.726-0.092-3.864-0.092-32.814 0-61.75 21.978-70.416 53.916l-27.454 101.404c-2.064 7.66-6.894 14.316-13.524 18.642l-87.972 57.438c-21.104 13.787-33.092 37.035-33.078 61.115 0 8.678 1.56 17.491 4.776 25.958l37.418 98.176c1.402 3.706 2.118 7.61 2.118 11.51 0 3.904-0.702 7.795-2.118 11.498l-37.406 98.189c-3.228 8.454-4.788 17.267-4.788 25.946-0.014 24.080 11.96 47.341 33.078 61.139l87.972 57.44c6.63 4.326 11.458 10.957 13.524 18.614l27.454 101.405c8.668 31.952 37.616 53.917 70.416 53.917 1.138 0 2.342-0.016 3.64-0.080l106.576-5.296c7.344 0.013 14.502 2.528 20.269 7.174l81.808 65.904c13.338 10.742 29.597 16.154 45.792 16.154 16.17 0 32.445-5.398 45.782-16.154l81.808-65.904c5.766-4.656 12.912-7.171 20.269-7.171l1.574 0.051 105.162 5.242c1.085 0.051 2.237 0.080 3.466 0.080 32.8 0 61.763-21.952 70.432-53.917l27.453-101.405c2.064-7.658 6.88-14.288 13.51-18.614l87.984-57.44c21.104-13.811 33.078-37.046 33.069-61.126 0-8.682-1.565-17.507-4.79-25.974l-37.392-98.16zM947.229 674.749l-87.958 57.424c-14.989 9.776-25.853 24.742-30.538 42.035l-27.456 101.392c-3.811 14.173-16.682 23.894-31.184 23.894l-1.773-0.038-104.714-5.226c-1.194-0.067-2.419-0.106-3.718-0.106-16.618 0-32.787 5.69-45.779 16.166l-81.808 65.904c-5.942 4.778-13.059 7.146-20.272 7.146-7.222 0-14.342-2.368-20.282-7.146l-81.808-65.904c-12.992-10.477-29.162-16.166-45.779-16.166-1.085 0.013-2.326 0.026-3.664 0.106l-106.552 5.267c-14.488 0.013-27.362-9.738-31.172-23.882l-27.454-101.418c-4.684-17.28-15.548-32.243-30.552-42.022l-87.96-57.437c-9.354-6.099-14.648-16.419-14.66-27.11 0-3.837 0.688-7.702 2.116-11.456l37.404-98.189c3.188-8.362 4.79-17.171 4.79-25.987 0-8.81-1.602-17.622-4.79-26l-37.404-98.147c-1.43-3.782-2.116-7.661-2.116-11.498 0.012-10.691 5.292-20.982 14.646-27.085l87.988-57.435c14.99-9.804 25.854-24.77 30.538-42.048l27.454-101.416c3.812-14.144 16.7-23.896 31.172-23.882l1.43 0.026 0.45 0.026 108.285 5.304c16.63 0 32.8-5.664 45.821-16.128l81.821-65.918c5.939-4.776 13.056-7.13 20.282-7.158 7.213 0.014 14.33 2.382 20.269 7.172l81.824 65.892c13.021 10.492 29.2 16.142 45.808 16.142 1.229 0 2.352-0.026 3.373-0.066l106.787-5.304c14.486 0 27.376 9.752 31.184 23.896l27.456 101.416c4.685 17.28 15.549 32.244 30.538 42.036l87.974 57.452c9.354 6.099 14.646 16.394 14.646 27.072 0 3.837-0.675 7.699-2.131 11.523l-37.379 98.147c-3.2 8.378-4.79 17.187-4.79 25.987 0 8.81 1.603 17.622 4.79 25.984l37.392 98.163c1.443 3.798 2.118 7.661 2.118 11.501 0 10.666-5.293 20.986-14.662 27.098z"></path>
<path fill="#000" d="M331.549 537.053l-61.432 13.731c-1.018 0.24-1.628-0.157-1.852-1.165l-8.058-36.016c-0.224-1.002 0.158-1.613 1.178-1.837l73.777-16.512c1.494-0.33 2.275-1.574 1.942-3.082l-6.032-26.941c-0.33-1.507-1.574-2.288-3.056-1.958l-109.791 24.557c-1.508 0.346-2.302 1.587-1.958 3.098l37.178 166.182c0.344 1.507 1.574 2.275 3.098 1.933l31.966-7.146c1.51-0.346 2.29-1.562 1.946-3.069l-14.422-64.461c-0.224-1.008 0.172-1.629 1.19-1.856l61.433-13.744c1.507-0.333 2.288-1.574 1.946-3.085l-5.968-26.688c-0.346-1.507-1.578-2.288-3.085-1.942z"></path>
<path fill="#000" d="M476.886 535.728c17.014-12.544 24.701-32.509 19.805-54.406-6.986-31.226-35.046-47.949-70.058-40.115l-68.221 15.267c-1.507 0.33-2.301 1.562-1.958 3.082l37.181 166.173c0.342 1.507 1.574 2.288 3.098 1.958l31.965-7.158c1.51-0.342 2.291-1.574 1.946-3.082l-13.696-61.181c-0.211-1.005 0.173-1.629 1.194-1.853l22.902-5.12 43.491 56.099c1.139 1.603 2.077 2.186 4.339 1.68l35.766-8.019c1.76-0.384 2.157-2.064 1.085-3.411l-48.838-59.914zM441.306 516.186l-30.208 6.762c-1.018 0.224-1.638-0.17-1.866-1.178l-8.838-39.536c-0.224-1.005 0.16-1.616 1.178-1.84l30.208-6.758c14.102-3.162 25.030 3.11 27.904 15.968 2.928 13.088-4.272 23.418-18.378 26.582z"></path>
<path fill="#000" d="M656.41 535.994l-73.776 16.515c-1.002 0.224-1.613-0.16-1.85-1.181l-7.939-35.498c-0.224-1.005 0.16-1.616 1.165-1.853l61.446-13.731c1.507-0.346 2.301-1.59 1.958-3.098l-5.968-26.675c-0.342-1.523-1.587-2.301-3.098-1.958l-61.43 13.734c-1.008 0.237-1.616-0.16-1.856-1.165l-7.594-33.99c-0.227-1.008 0.157-1.629 1.165-1.84l73.776-16.512c1.494-0.346 2.275-1.574 1.946-3.082l-6.032-26.941c-0.33-1.52-1.574-2.288-3.056-1.955l-109.792 24.557c-1.507 0.342-2.301 1.574-1.958 3.082l37.181 166.182c0.342 1.51 1.574 2.288 3.094 1.946l109.782-24.557c1.491-0.33 2.275-1.574 1.93-3.082l-6.019-26.938c-0.349-1.51-1.578-2.291-3.075-1.962z"></path>
<path fill="#000" d="M798.637 504.189l-73.763 16.499c-1.008 0.227-1.629-0.173-1.853-1.178l-7.939-35.498c-0.227-1.005 0.173-1.629 1.174-1.84l61.421-13.76c1.536-0.33 2.304-1.562 1.971-3.069l-5.968-26.701c-0.342-1.507-1.574-2.288-3.094-1.958l-61.434 13.76c-1.005 0.214-1.613-0.17-1.837-1.178l-7.61-33.99c-0.224-1.008 0.16-1.616 1.165-1.853l73.763-16.499c1.536-0.346 2.317-1.574 1.984-3.082l-6.032-26.941c-0.342-1.523-1.558-2.304-3.094-1.958l-109.766 24.557c-1.507 0.342-2.301 1.574-1.958 3.082l37.181 166.182c0.342 1.51 1.574 2.291 3.085 1.946l109.763-24.557c1.536-0.342 2.317-1.574 1.971-3.085l-6.032-26.938c-0.333-1.507-1.562-2.288-3.098-1.942z"></path>
</svg>
