<!-- Generated by IcoMoon.io -->
<svg version="1.1" xmlns="http://www.w3.org/2000/svg" width="1056" height="1024" viewBox="0 0 1056 1024">
<g id="icomoon-ignore">
</g>
<path d="M192 640c-60.8 0-112-48-112-112v-16c0-121.6 99.2-224 224-224h64c16 0 32 12.8 32 32s-12.8 32-32 32h-64c-89.6 0-160 73.6-160 160v16c0 28.8 19.2 48 48 48s48-22.4 48-48c0-76.8 64-144 144-144h112c16 0 32 12.8 32 32s-12.8 32-32 32h-112c-44.8 0-80 38.4-80 80 0 60.8-51.2 112-112 112zM691.2 838.4c-25.6 0-48-9.6-67.2-28.8l-278.4-278.4c-6.4-6.4-9.6-12.8-9.6-22.4v-252.8c0-16 12.8-32 32-32h252.8c9.6 0 16 3.2 22.4 9.6l275.2 281.6c19.2 19.2 28.8 41.6 28.8 67.2s-9.6 48-28.8 67.2l-160 160c-19.2 16-41.6 28.8-67.2 28.8zM400 496l268.8 268.8c12.8 12.8 32 12.8 48 0l160-160c6.4-6.4 9.6-16 9.6-22.4 0-9.6-3.2-16-9.6-22.4l-268.8-272h-208v208z"></path>
</svg>
