<!-- Generated by IcoMoon.io -->
<svg version="1.1" xmlns="http://www.w3.org/2000/svg" width="1058" height="1024" viewBox="0 0 1058 1024">
<g id="icomoon-ignore">
</g>
<path d="M730.453 798.72h-276.48c-58.027 0-109.227-47.787-109.227-109.227v-310.613c0-27.307 10.24-51.2 27.307-71.68l180.907-211.627c27.307-30.72 68.267-37.547 102.4-20.48s54.613 61.44 40.96 98.987l-47.787 143.36h129.707c6.827 0 13.653 0 20.48 3.413 27.307 3.413 51.2 20.48 68.267 44.373s23.893 51.2 17.067 81.92l-47.787 262.827c-10.24 51.2-54.613 88.747-105.813 88.747zM617.813 133.12c-6.827 0-13.653 3.413-17.067 6.827l-180.907 211.627c-6.827 6.827-10.24 17.067-10.24 27.307v310.613c0 23.893 20.48 44.373 44.373 44.373h276.48c20.48 0 37.547-13.653 40.96-34.133l47.787-262.827c3.413-10.24 0-23.893-6.827-30.72s-17.067-17.067-27.307-17.067c-3.413 0-3.413 0-6.827 0h-174.080c-10.24 0-20.48-3.413-27.307-13.653-6.827-6.827-6.827-20.48-3.413-30.72l61.44-184.32c3.413-6.827 0-17.067-6.827-20.48-3.413-3.413-6.827-6.827-10.24-6.827zM228.693 761.173c-17.067 0-34.133-13.653-34.133-34.133v-337.92c0-17.067 13.653-34.133 34.133-34.133s34.133 13.653 34.133 34.133v337.92c0 20.48-13.653 34.133-34.133 34.133z"></path>
</svg>
