<svg width="24" height="24" viewBox="0 0 24 24" fill="none" xmlns="http://www.w3.org/2000/svg">
<rect width="24" height="24" fill="#F5F5F5"/>
<g id="&#208;&#147;&#208;&#187;&#208;&#176;&#208;&#178;&#208;&#189;&#208;&#176;&#209;&#143;" clip-path="url(#clip0_36_681)">
<rect width="1920" height="3549" transform="translate(-1676 -568)" fill="white"/>
<rect id="Rectangle 5" x="-1676" y="-33" width="1920" height="91" fill="#619DC9"/>
<g id="Frame 48095822">
<g id="Frame 48095821">
<rect x="-328.5" y="-11.5" width="372" height="47" rx="23.5" fill="white"/>
<rect x="-328.5" y="-11.5" width="372" height="47" rx="23.5" stroke="#E9EFF2"/>
<g id="Search">
<path id="Vector" d="M16.1023 15.0529C17.3286 13.5668 18.103 11.6608 18.103 9.56094C18.103 4.84435 14.2629 1 9.55152 1C4.84012 1 1 4.84435 1 9.56094C1 14.2775 4.84012 18.1219 9.55152 18.1219C11.6168 18.1219 13.553 17.3789 15.0374 16.1189L21.685 22.7739C21.8463 22.9354 22.04 23 22.2336 23C22.4272 23 22.6208 22.9354 22.7822 22.7739C23.0726 22.4831 23.0726 21.9662 22.7822 21.6755L16.1023 15.0529ZM9.51925 16.5712C5.64686 16.5712 2.51669 13.4376 2.51669 9.56094C2.51669 5.68429 5.64686 2.55066 9.51925 2.55066C13.3916 2.55066 16.5218 5.68429 16.5218 9.56094C16.5218 13.4376 13.3916 16.5712 9.51925 16.5712Z" fill="#619DC9"/>
</g>
</g>
</g>
</g>
<defs>
<clipPath id="clip0_36_681">
<rect width="1920" height="3549" fill="white" transform="translate(-1676 -568)"/>
</clipPath>
</defs>
</svg>
