<?xml version="1.0" encoding="utf-8"?>
<!-- Generator: Adobe Illustrator 28.0.0, SVG Export Plug-In . SVG Version: 6.00 Build 0)  -->
<svg version="1.1" id="Слой_1" xmlns="http://www.w3.org/2000/svg" xmlns:xlink="http://www.w3.org/1999/xlink" x="0px" y="0px"
	 viewBox="0 0 117 116" style="enable-background:new 0 0 117 116;" xml:space="preserve">
<style type="text/css">
	.st0{fill:url(#SVGID_1_);}
	.st1{fill:#BB3AA7;}
	.st2{fill:#FFFFFF;}
</style>
<linearGradient id="SVGID_1_" gradientUnits="userSpaceOnUse" x1="12.9571" y1="100.6847" x2="105.256" y2="18.2316" gradientTransform="matrix(1 0 0 -1 0 118)">
	<stop  offset="0" style="stop-color:#A23FD4"/>
	<stop  offset="1" style="stop-color:#E77982"/>
</linearGradient>
<path class="st0" d="M58.5,101.5c24,0,43.5-19.5,43.5-43.5S82.5,14.5,58.5,14.5S15,34,15,58S34.5,101.5,58.5,101.5z"/>
<path class="st1" d="M58.5,103.5c-5.9,0-11.9-1.2-17.4-3.5c-9.7-4-17.8-11.3-22.7-20.6c-4.9-9.3-6.5-20-4.5-30.3
	c2-10.3,7.6-19.6,15.8-26.3c8.1-6.7,18.4-10.3,28.9-10.3c1.1,0,2,0.9,2,2s-0.9,2-2,2c-9.6,0-18.9,3.3-26.3,9.4
	c-7.4,6.1-12.5,14.6-14.4,24c-1.9,9.4-0.4,19.2,4.1,27.7c4.5,8.4,11.9,15.1,20.7,18.8c8.8,3.7,18.8,4.2,27.9,1.4
	C79.7,94.9,87.7,89,93,81.1s7.7-17.6,6.8-27.1c-0.9-9.5-5.2-18.5-12-25.3c-0.8-0.8-0.8-2,0-2.8c0.8-0.8,2-0.8,2.8,0
	c7.4,7.4,12.1,17.3,13.1,27.7c1,10.4-1.6,21-7.4,29.7c-5.8,8.7-14.6,15.2-24.6,18.3C67.4,102.8,63,103.5,58.5,103.5z"/>
<path class="st2" d="M53.4,77.5c-3,0-5.2-2.1-8.9-5.9l-7-7c-1-1-1-2.5,0-3.5c1-1,2.5-1,3.5,0l7,7c2.7,2.7,4.4,4.4,5.5,4.4
	c0,0,0,0,0,0c1,0,2.7-2,5.1-4.9L76,46.8c0.9-1,2.4-1.2,3.5-0.3c1,0.9,1.2,2.4,0.3,3.5L62.3,70.8c-3.5,4.2-5.4,6.5-8.7,6.7
	C53.6,77.5,53.5,77.5,53.4,77.5z"/>
</svg>
