<svg width="30" height="35" viewBox="0 0 30 35" fill="none" xmlns="http://www.w3.org/2000/svg">
<path fill-rule="evenodd" clip-rule="evenodd" d="M15 0.036377C6.71573 0.036377 0 6.88643 0 15.3364C0 19.9332 2.34763 23.9307 4.95987 26.9768C7.59102 30.0448 10.662 32.3491 12.4898 33.5895C14.0183 34.6268 15.9817 34.6268 17.5102 33.5895C19.338 32.3491 22.409 30.0448 25.0402 26.9768C27.6523 23.9307 30 19.9332 30 15.3364C30 6.88643 23.2843 0.036377 15 0.036377ZM11.6667 15.3364C11.6667 13.4586 13.159 11.9364 15 11.9364C16.841 11.9364 18.3333 13.4586 18.3333 15.3364C18.3333 17.2142 16.841 18.7364 15 18.7364C13.159 18.7364 11.6667 17.2142 11.6667 15.3364ZM15 8.53638C11.3181 8.53638 8.33333 11.5808 8.33333 15.3364C8.33333 19.0918 11.3181 22.1364 15 22.1364C18.6818 22.1364 21.6667 19.0918 21.6667 15.3364C21.6667 11.5808 18.6818 8.53638 15 8.53638Z" fill="#BB3AA7"/>
</svg>
