<svg width="27" height="27" viewBox="0 0 27 27" fill="none" xmlns="http://www.w3.org/2000/svg">
<g clip-path="url(#clip0_2_2718)">
<path d="M13.7245 0.746094H13.7181C6.64522 0.746094 0.893572 6.49935 0.893572 13.5739C0.889179 16.2757 1.74445 18.9089 3.33566 21.0925L1.737 25.8581L6.66767 24.2818C8.75919 25.6694 11.2146 26.407 13.7245 26.4016C20.7975 26.4016 26.5491 20.6468 26.5491 13.5739C26.5491 6.50095 20.7975 0.746094 13.7245 0.746094ZM21.1887 18.8605C20.8792 19.7344 19.651 20.4592 18.6713 20.6708C18.001 20.8135 17.1255 20.9274 14.1783 19.7055C10.4086 18.1438 7.98091 14.3131 7.7917 14.0645C7.61051 13.816 6.26841 12.0361 6.26841 10.1953C6.26841 8.35456 7.20323 7.45822 7.58004 7.07339C7.88951 6.75751 8.40102 6.61319 8.89168 6.61319C9.05043 6.61319 9.19314 6.62121 9.32141 6.62762C9.69823 6.64366 9.88744 6.66611 10.136 7.261C10.4454 8.00661 11.1991 9.84739 11.2889 10.0366C11.3803 10.2258 11.4717 10.4824 11.3434 10.7309C11.2231 10.9875 11.1173 11.1013 10.9281 11.3194C10.7389 11.5375 10.5593 11.7042 10.3701 11.9383C10.1969 12.142 10.0013 12.36 10.2194 12.7368C10.4374 13.1056 11.1911 14.3355 12.3007 15.3232C13.7326 16.598 14.8935 17.0053 15.3088 17.1785C15.6182 17.3067 15.987 17.2763 16.2131 17.0358C16.5002 16.7263 16.8545 16.2132 17.2153 15.7081C17.4719 15.3457 17.7958 15.3008 18.1357 15.4291C18.482 15.5493 20.3148 16.4553 20.6916 16.6429C21.0684 16.8321 21.317 16.9219 21.4084 17.0807C21.4982 17.2394 21.4982 17.985 21.1887 18.8605Z" fill="white" fill-opacity="0.53"/>
</g>
<defs>
<clipPath id="clip0_2_2718">
<rect width="25.6555" height="25.6555" fill="white" transform="translate(0.893555 0.746094)"/>
</clipPath>
</defs>
</svg>
