<svg width="209" height="261" viewBox="0 0 209 261" fill="none" xmlns="http://www.w3.org/2000/svg">
<g clip-path="url(#clip0_8_3799)">
<path d="M99.9576 5.29655C100.788 3.21375 103.082 2.22021 105.074 3.08109C107.073 3.94477 108.023 6.34043 107.195 8.42323C106.367 10.506 104.073 11.4991 102.074 10.636C100.082 9.77508 99.1295 7.37935 99.9576 5.29655ZM111.233 10.1647C112.981 5.76453 110.968 0.695502 106.746 -1.12758C102.525 -2.95345 97.6699 -0.850539 95.922 3.55239C94.1741 7.95476 96.1828 13.0221 100.401 14.8452C104.623 16.6677 109.485 14.5698 111.233 10.1647Z" fill="white" fill-opacity="0.2"/>
<path d="M128.726 12.796L125.616 20.2517L118.104 17.1623L121.216 9.70664L128.726 12.796ZM120.68 -3.96429L116.188 -4.55225L111.863 28.0511L116.355 28.6418L117.277 21.6917L128.07 26.131L134.65 10.3603L119.599 4.17218L120.68 -3.96429H120.68Z" fill="white" fill-opacity="0.2"/>
<path d="M51.0956 48.2309C53.2585 48.2309 55.0167 49.9904 55.0167 52.1561C55.0167 54.3187 53.259 56.0782 51.0956 56.0782C48.9396 56.0782 47.1798 54.3187 47.1798 52.1561C47.1798 49.9909 48.9396 48.2309 51.0956 48.2309ZM51.0956 43.8557C46.525 43.8557 42.8115 47.5802 42.8115 52.1556C42.8115 56.7284 46.525 60.4527 51.0956 60.4527C55.6635 60.4527 59.3839 56.7284 59.3839 52.1556C59.3839 47.5802 55.6635 43.8557 51.0956 43.8557Z" fill="white" fill-opacity="0.2"/>
<path d="M68.5717 48.2203H76.417V56.0861H68.5717V48.2203ZM67.2156 60.4713H80.7906V43.835H67.2156L64.9904 35.5572L60.7656 36.6989L64.1981 49.4648V54.8443L60.7656 67.6096L64.9904 68.7513L67.2156 60.4713Z" fill="white" fill-opacity="0.2"/>
<path d="M42.7037 161.132C44.5037 159.876 46.941 160.386 48.1447 162.261C49.3413 164.131 48.8549 166.675 47.0575 167.929C45.2628 169.18 42.8256 168.672 41.6268 166.802C40.4253 164.925 40.9111 162.38 42.7037 161.132ZM40.276 157.339C36.474 159.988 35.4556 165.371 37.9928 169.335C40.5305 173.298 45.6859 174.369 49.4879 171.719C53.2851 169.069 54.3158 163.692 51.7781 159.726C49.2383 155.762 44.0759 154.692 40.276 157.339Z" fill="white" fill-opacity="0.2"/>
<path d="M69.04 155.505L60.2227 154.387L62.5739 145.702L69.0394 155.505H69.04ZM61.532 159.031L78.0286 161.133L60.8819 135.139L56.4803 151.399L47.0846 143.079L44.1934 146.427L56.1569 157.044L61.3821 172.483L65.5407 171.06L61.5314 159.031H61.532Z" fill="white" fill-opacity="0.2"/>
<path d="M205.308 210.52C205.308 208.356 207.065 206.593 209.227 206.593C211.387 206.593 213.143 208.356 213.143 210.52C213.143 212.681 211.387 214.442 209.227 214.442C207.066 214.442 205.308 212.681 205.308 210.52ZM200.94 210.52C200.94 215.095 204.659 218.816 209.227 218.816C213.792 218.816 217.513 215.095 217.513 210.52C217.513 205.945 213.792 202.219 209.227 202.219C204.659 202.219 200.94 205.945 200.94 210.52Z" fill="white" fill-opacity="0.2"/>
<path d="M215.038 185.313L209.228 192.248L203.425 185.313H215.037H215.038ZM224.662 190.451L214.045 193.413L224.627 180.781H193.836L204.411 193.415L193.797 190.451L192.654 194.828L209.228 199.453L225.799 194.828L224.662 190.451Z" fill="white" fill-opacity="0.2"/>
<path d="M161.413 157.842C162.241 155.842 164.537 154.889 166.534 155.72C168.53 156.549 169.482 158.85 168.654 160.847C167.829 162.842 165.533 163.796 163.536 162.967C161.54 162.138 160.588 159.837 161.413 157.842ZM157.378 156.168C155.628 160.395 157.644 165.258 161.862 167.008C166.085 168.762 170.941 166.749 172.689 162.522C174.437 158.294 172.426 153.426 168.206 151.676C163.985 149.925 159.126 151.942 157.378 156.168Z" fill="white" fill-opacity="0.2"/>
<path d="M179.901 138.367L171.857 142.358L169.022 133.901L179.901 138.368V138.367ZM186.988 146.679L175.935 145.253L190.583 137.991L161.737 126.149L166.911 141.548L158.075 134.808L155.366 138.298L169.155 148.82L186.417 151.045L186.987 146.679H186.988Z" fill="white" fill-opacity="0.2"/>
<path d="M36.9252 23.6115L31.3413 16.4017L39.2469 11.887L36.9258 23.6115H36.9252ZM27.9603 -1.09453L23.4775 -0.802054L25.626 32.0807L30.1109 31.7911L29.4207 21.2684L39.4124 34.1741L45.574 3.08221L28.859 12.6352L27.9603 -1.09453Z" fill="white" fill-opacity="0.2"/>
<path d="M9.46476 11.9722C9.90461 9.84924 12.0558 8.46823 14.2573 8.88884C16.4666 9.30892 17.9057 11.3786 17.4659 13.5021C17.026 15.6229 14.8748 17.0062 12.6655 16.5834C10.464 16.1633 9.02268 14.0929 9.46476 11.9722ZM21.9303 14.3552C22.8586 9.87133 19.8126 5.49222 15.1476 4.59782C10.4797 3.70556 5.92865 6.63593 5.00089 11.1176C4.07257 15.6014 7.11068 19.9831 11.7785 20.8749C16.4442 21.7666 21.0003 18.8395 21.9303 14.3552Z" fill="white" fill-opacity="0.2"/>
<path d="M97.0142 123.668L88.2518 121.956L91.1749 113.379L97.0142 123.668ZM87.1299 126.298L105.649 129.926L90.1667 102.637L84.9451 117.992L82.28 107.863L78.0283 109.03L86.3575 140.672L90.6091 139.507L87.1299 126.298V126.298Z" fill="white" fill-opacity="0.2"/>
<path d="M70.1143 127.795C72.0652 126.669 74.5686 127.339 75.6925 129.292C76.8192 131.248 76.1476 133.752 74.1967 134.877C72.2508 136.002 69.7503 135.333 68.6264 133.38C67.4997 131.426 68.169 128.92 70.1143 127.795ZM67.838 123.848C63.7147 126.231 62.3035 131.531 64.6844 135.659C67.0619 139.785 72.3532 141.208 76.4759 138.825C80.5969 136.444 82.016 131.141 79.6351 127.013C77.2576 122.885 71.9612 121.464 67.838 123.848Z" fill="white" fill-opacity="0.2"/>
<path d="M137.658 232.284L139.789 235.14C138.7 235.568 137.532 235.659 136.347 235.545L137.658 232.284ZM133.574 230.544L132.265 233.802C131.346 233.022 130.586 232.106 130.112 231.012L133.574 230.544ZM136.507 223.255L134.423 220.456C135.49 220.05 136.628 219.953 137.786 220.065L136.507 223.255ZM141.87 221.807C142.769 222.575 143.51 223.471 143.983 224.539L140.589 224.999L141.87 221.807ZM129.986 224.786C130.218 224.206 130.62 223.778 130.961 223.293L132.996 226.027L129.665 226.477C129.759 225.91 129.764 225.338 129.986 224.786ZM144.15 230.827C143.928 231.379 143.537 231.786 143.214 232.259L141.172 229.514L144.483 229.067C144.392 229.656 144.382 230.252 144.15 230.827ZM141.692 216.306C135.534 213.679 128.452 216.702 125.904 223.041C123.353 229.385 126.287 236.679 132.443 239.307C138.599 241.932 145.68 238.912 148.231 232.569C150.782 226.228 147.848 218.934 141.692 216.306Z" fill="white" fill-opacity="0.2"/>
<path d="M131.499 241.516C124.084 238.384 120.552 229.684 123.623 222.124C126.692 214.568 135.222 210.965 142.637 214.097C150.048 217.228 153.581 225.927 150.512 233.484C147.441 241.046 138.913 244.648 131.499 241.516ZM144.335 209.916C134.662 205.833 123.532 210.528 119.523 220.393C115.517 230.255 120.13 241.609 129.8 245.695C139.473 249.781 150.606 245.078 154.612 235.216C158.618 225.353 154.005 214.002 144.335 209.916Z" fill="white" fill-opacity="0.2"/>
<path d="M22.8884 88.6414C22.7979 88.2082 22.3748 87.9243 21.9386 88.0129C21.0464 88.1962 21.3869 89.7759 22.2577 89.5973C22.6955 89.5088 22.9758 89.085 22.8879 88.6414H22.8884ZM18.7128 89.4926C18.3347 87.6242 19.5433 85.7994 21.413 85.4176C23.2739 85.0389 25.1007 86.2499 25.4794 88.1151C25.8575 89.9876 24.6515 91.815 22.7859 92.1942C20.9188 92.5729 19.0941 91.3651 18.7128 89.4926Z" fill="white" fill-opacity="0.2"/>
<path d="M19.8515 79.1126L12.4176 90.3628L23.6503 97.8078L31.0842 86.5577L19.8515 79.1126ZM6.21484 91.6276L18.5885 72.9005L37.2881 85.2949L24.9117 104.02L6.21484 91.6276Z" fill="white" fill-opacity="0.2"/>
<path d="M134.241 125.575C133.895 125.261 133.335 125.261 132.989 125.575C132.283 126.219 133.549 127.351 134.244 126.72C134.589 126.405 134.589 125.895 134.241 125.575ZM130.929 128.591C129.447 127.246 129.447 125.053 130.931 123.702C132.41 122.355 134.819 122.355 136.299 123.702C137.784 125.053 137.784 127.246 136.304 128.591C134.819 129.946 132.41 129.946 130.929 128.591Z" fill="white" fill-opacity="0.2"/>
<path d="M126.772 119.501V132.795H140.459V119.501H126.772ZM122.222 137.214V115.085H145.009V137.214H122.222Z" fill="white" fill-opacity="0.2"/>
<path d="M88.681 64.0237V54.3863H101.573L88.681 64.0237ZM101.573 49.9238H88.681V40.2858L101.573 49.9238ZM84.2432 31.4085V72.9005L109.001 54.3858H122.222V49.9233H109.001L84.2432 31.408V31.4085Z" fill="white" fill-opacity="0.2"/>
<path d="M25.3662 122.447L32.6852 125.488L29.6557 132.819L22.3399 129.781L25.3662 122.447ZM37.0453 126.499L47.0771 130.666L48.7688 126.573L42.299 123.891L53.1696 119.378L51.48 115.292L40.6072 119.805L43.2885 113.312L39.2061 111.627L35.052 121.681L22.9803 116.666L16.5723 132.176L32.0426 138.597L37.0447 126.499L37.0453 126.499Z" fill="white" fill-opacity="0.2"/>
<path d="M203.674 165.261L209.229 159.558L214.778 165.261L209.229 170.965L203.674 165.261ZM211.808 155.85L219.42 148.03L216.321 144.845L211.417 149.89V137.905H207.041V149.892L202.125 144.845L199.037 148.03L206.65 155.85L197.487 165.261L209.229 177.323L220.965 165.261L211.807 155.85H211.808Z" fill="white" fill-opacity="0.2"/>
<path d="M18.9868 58.2212L13.2738 52.5003L18.9868 46.7765L24.7048 52.5003L18.9868 58.2212ZM6.90527 52.5003L18.9868 64.602L31.0733 52.5003L18.9868 40.398L6.90527 52.5003Z" fill="white" fill-opacity="0.2"/>
<path d="M4.38115 40.0509C4.38115 38.8455 5.35566 37.8679 6.55937 37.8679C7.76147 37.8679 8.73755 38.846 8.73755 40.0509C8.73755 41.2541 7.76094 42.2365 6.55937 42.2365C5.35512 42.2365 4.38115 41.2536 4.38115 40.0509ZM13.1198 40.0509C13.1198 36.4298 10.1775 33.4826 6.5599 33.4826C2.94445 33.4826 0 36.4298 0 40.0509C0 43.6746 2.94445 46.6219 6.5599 46.6219C10.1775 46.6219 13.1198 43.6746 13.1198 40.0509Z" fill="white" fill-opacity="0.2"/>
<path d="M4.38115 64.9467C4.38115 63.743 5.35566 62.7677 6.55937 62.7677C7.76147 62.7677 8.73755 63.7436 8.73755 64.9467C8.73755 66.1553 7.76094 67.1305 6.55937 67.1305C5.35512 67.1305 4.38115 66.1547 4.38115 64.9467ZM13.1198 64.9467C13.1198 61.3292 10.1775 58.3781 6.5599 58.3781C2.94445 58.3781 0 61.3292 0 64.9467C0 68.5713 2.94445 71.5174 6.5599 71.5174C10.1775 71.5174 13.1198 68.5713 13.1198 64.9467Z" fill="white" fill-opacity="0.2"/>
<path d="M33.5987 40.0509C33.5987 41.2541 32.6246 42.2365 31.4213 42.2365C30.2175 42.2365 29.239 41.2536 29.239 40.0509C29.239 38.8455 30.218 37.8679 31.4213 37.8679C32.6251 37.8679 33.5987 38.846 33.5987 40.0509ZM24.8584 40.0509C24.8584 43.6746 27.7996 46.6219 31.4207 46.6219C35.037 46.6219 37.9782 43.6746 37.9782 40.0509C37.9782 36.4298 35.037 33.4826 31.4207 33.4826C27.7996 33.4826 24.8584 36.4298 24.8584 40.0509Z" fill="white" fill-opacity="0.2"/>
<path d="M33.5987 64.9467C33.5987 66.1553 32.6246 67.1305 31.4213 67.1305C30.2175 67.1305 29.239 66.1547 29.239 64.9467C29.239 63.743 30.218 62.7677 31.4213 62.7677C32.6251 62.7677 33.5987 63.7436 33.5987 64.9467ZM24.8584 64.9467C24.8584 68.5713 27.7996 71.5174 31.4207 71.5174C35.037 71.5174 37.9782 68.5713 37.9782 64.9467C37.9782 61.3292 35.037 58.3781 31.4207 58.3781C27.7996 58.3781 24.8584 61.3292 24.8584 64.9467Z" fill="white" fill-opacity="0.2"/>
<path d="M109.703 87.0309L117.087 90.0938L114.029 97.4971L106.637 94.4314L109.703 87.0309ZM122.912 87.679L107.287 81.199L100.815 96.8457L116.442 103.328L122.912 87.679Z" fill="white" fill-opacity="0.2"/>
<path d="M130.106 98.3022C130.566 99.4759 130.038 100.817 128.926 101.302C127.813 101.789 126.539 101.232 126.077 100.059C125.617 98.8874 126.143 97.5385 127.255 97.0538C128.368 96.569 129.644 97.1286 130.106 98.3022ZM122.031 101.826C123.414 105.348 127.262 107.028 130.6 105.568C133.944 104.108 135.535 100.059 134.152 96.5355C132.764 93.0099 128.921 91.3305 125.578 92.7905C122.239 94.2476 120.646 98.2994 122.031 101.826Z" fill="white" fill-opacity="0.2"/>
<path d="M120.886 75.4779C121.373 76.6521 120.816 77.9936 119.644 78.4786C118.476 78.9665 117.134 78.4094 116.647 77.2347C116.163 76.0633 116.719 74.7189 117.889 74.2339C119.062 73.7489 120.401 74.3037 120.886 75.4779ZM112.388 79.0021C113.844 82.527 117.895 84.2072 121.409 82.7466C124.928 81.2859 126.606 77.2346 125.148 73.7104C123.691 70.1878 119.644 68.5109 116.124 69.9688C112.61 71.4266 110.932 75.4829 112.388 79.0021Z" fill="white" fill-opacity="0.2"/>
<path d="M103.288 109.745C102.828 108.571 103.354 107.222 104.465 106.737C105.578 106.252 106.858 106.812 107.318 107.983C107.78 109.157 107.247 110.501 106.133 110.986C105.023 111.471 103.75 110.916 103.288 109.745ZM111.364 106.217C109.98 102.69 106.133 101.011 102.789 102.473C99.4516 103.931 97.8591 107.983 99.244 111.509C100.626 115.03 104.472 116.709 107.809 115.249C111.156 113.789 112.749 109.737 111.364 106.217Z" fill="white" fill-opacity="0.2"/>
<path d="M93.6217 86.5293C93.1596 85.4158 93.6879 84.1386 94.7986 83.6778C95.912 83.217 97.1895 83.7414 97.6521 84.857C98.1115 85.9726 97.5784 87.2504 96.4676 87.7106C95.3564 88.1714 94.0789 87.6449 93.6217 86.5293ZM101.699 83.1777C100.314 79.8314 96.4698 78.2378 93.1226 79.6256C89.7828 81.0106 88.1923 84.8618 89.5752 88.2086C90.9575 91.5548 94.8034 93.1505 98.141 91.7628C101.488 90.3756 103.079 86.5244 101.699 83.1777Z" fill="white" fill-opacity="0.2"/>
<path d="M74.3899 102.082C75.7092 98.1626 75.8952 93.983 75.1913 89.963L73.0118 90.5487C73.9817 96.495 72.6869 102.553 69.0937 107.478L65.5152 104.834C68.3103 101.008 69.3662 96.3306 68.7268 91.7024L66.2517 92.3675C66.8514 97.5737 64.9493 102.815 60.8382 106.189L58.0257 102.735C60.7935 100.467 62.1597 97.0181 61.9662 93.524L59.6874 94.1371C59.6819 97.3967 57.9614 100.495 54.963 101.997L52.9791 98.0124C54.0678 97.4646 54.7793 96.4823 55.1118 95.368L49.484 96.8834L48.3359 92.5768L53.9631 91.0592C53.1225 90.2621 52.0142 89.768 50.8012 89.843L50.5362 85.3946C53.8786 85.1902 56.9119 87.0069 58.5365 89.8282L60.8175 89.2125C59.2479 86.0925 56.3461 83.7926 52.8221 83.2141L53.5363 78.8127C58.7764 79.6679 63.032 83.2514 65.1025 88.0609L67.5775 87.3936C65.8292 83.0667 62.5855 79.538 58.2607 77.6321L60.0412 73.5419C65.6084 76.0044 69.7452 80.602 71.8626 86.2393L74.0421 85.6541C72.6509 81.8116 70.4097 78.2819 67.3219 75.5564L70.2483 72.209C74.0078 75.5234 76.7484 79.7528 78.3997 84.4807L83.0947 83.2146L84.2428 87.5261L79.5483 88.7895C80.4686 93.7091 80.1976 98.7482 78.5981 103.513L74.3894 102.082H74.3899Z" fill="white" fill-opacity="0.2"/>
<path d="M89.9716 198.58L82.3803 190.975L92.7533 193.758L93.91 189.445L83.5299 186.659L93.9051 183.873L92.7484 179.563L82.3754 182.346L89.9689 174.741L86.8219 171.587L79.2257 179.194L82.0073 168.804L77.703 167.647L74.9219 178.041L72.1402 167.642L67.8338 168.801L70.6154 179.189L63.0219 171.584L59.8722 174.739L67.4728 182.351L57.0884 179.563L55.9316 183.873L66.3112 186.662L55.9366 189.445L57.0905 193.758L67.4657 190.973L59.8722 198.58L63.0219 201.732L70.6154 194.125L67.8338 204.515L72.1402 205.674L74.9197 195.283L77.703 205.677L82.0073 204.52L79.2235 194.12L86.8241 201.732L89.9716 198.58Z" fill="white" fill-opacity="0.2"/>
<path d="M178.146 241.69L169.804 250.193L165.376 239.169L178.146 241.69ZM181.578 224.556L173.236 233.057L168.808 222.033L181.578 224.556ZM175.944 236.702L190.582 221.779L161.56 216.05L169.334 235.396L158.128 233.183L168.192 258.234L187.15 238.913L175.944 236.702V236.702Z" fill="white" fill-opacity="0.2"/>
<path d="M54.6731 -3.8607L53.5141 0.421916C58.332 1.69961 61.4462 6.13498 61.2294 10.8828L49.2336 7.69732L48.0768 11.9772L60.0725 15.1632C57.8648 19.3837 52.9299 21.6806 48.1119 20.4007L46.9551 24.6811C54.1532 26.5944 61.5116 22.8865 64.4161 16.3169L83.0861 21.2747L84.2429 16.9948L65.5729 12.037C66.3718 4.90794 61.8712 -1.9469 54.6731 -3.86017V-3.8607Z" fill="white" fill-opacity="0.2"/>
<path d="M97.6321 164.992L103.265 159.354L108.877 164.97C105.465 167.181 101.05 167.183 97.6327 164.992H97.6321ZM94.5059 150.581L100.116 156.199L94.4835 161.84C92.2962 158.418 92.3011 153.996 94.5059 150.582V150.581ZM108.834 147.471L103.265 153.043L97.6748 147.446C101.075 145.293 105.443 145.297 108.835 147.471H108.834ZM112.005 161.797L106.415 156.199L111.982 150.624C114.153 154.019 114.155 158.395 112.005 161.798V161.797ZM113.735 145.713C107.945 139.913 98.5201 139.913 92.7295 145.713C86.9378 151.514 86.9378 160.95 92.7295 166.749C98.5206 172.55 107.946 172.55 113.735 166.749C119.526 160.95 119.526 151.513 113.735 145.713Z" fill="white" fill-opacity="0.2"/>
<path d="M173.274 193.039L174.571 188.197L178.112 194.339L173.274 193.039ZM172.125 197.338L176.963 198.635L170.83 202.181L172.125 197.338ZM167.835 196.185L166.54 201.028L163 194.888L167.835 196.185ZM168.987 191.889L164.151 190.592L170.282 187.046L168.987 191.889ZM174.627 179.398L155.366 190.537L166.486 209.826L185.749 198.689L174.627 179.398Z" fill="white" fill-opacity="0.2"/>
<path d="M205.308 252.705C205.308 250.539 207.065 248.779 209.227 248.779C211.387 248.779 213.143 250.539 213.143 252.705C213.143 254.864 211.387 256.624 209.227 256.624C207.066 256.624 205.308 254.864 205.308 252.705ZM200.94 252.705C200.94 257.279 204.659 261 209.227 261C213.792 261 217.513 257.279 217.513 252.705C217.513 248.128 213.792 244.403 209.227 244.403C204.659 244.403 200.94 248.128 200.94 252.705Z" fill="white" fill-opacity="0.2"/>
<path d="M213.285 235.253H205.161V227.362H213.285V235.253ZM224.63 232.526L217.817 234.302V222.965H200.632V238.771L192.654 240.847L193.823 245.095L225.799 236.776L224.63 232.526Z" fill="white" fill-opacity="0.2"/>
<path d="M94.7964 216.638C95.9951 214.838 98.4371 214.351 100.229 215.552C102.027 216.755 102.512 219.198 101.309 221C100.112 222.795 97.6732 223.279 95.8759 222.076C94.0808 220.878 93.5977 218.435 94.7964 216.638ZM91.1627 214.207C88.6204 218.012 89.6489 223.174 93.4458 225.715C97.2454 228.261 102.405 227.236 104.945 223.431C107.485 219.626 106.457 214.456 102.657 211.913C98.8574 209.369 93.6997 210.402 91.1627 214.207Z" fill="white" fill-opacity="0.2"/>
<path d="M108.689 195.278L115.342 199.727L110.894 206.395L104.241 201.944L108.689 195.278ZM98.0537 203.175L112.123 212.592L121.531 198.494L107.459 189.08L98.0537 203.175Z" fill="white" fill-opacity="0.2"/>
<path d="M118.825 170.781L128.087 176.137H117.39L117.388 180.585H128.092L118.828 185.945L121.048 189.799L130.313 184.438L124.964 193.719L128.806 195.941L134.154 186.66V197.378H138.594L138.596 186.66L143.95 195.945L147.794 193.719L142.445 184.441L151.707 189.799L153.926 185.95L144.654 180.585L155.363 180.587L155.366 176.139L144.661 176.137L153.926 170.776L151.705 166.926L142.441 172.286L147.789 163.005L143.948 160.786L138.599 170.064V159.348L134.159 159.343V170.064L128.803 160.778L124.959 163.003L130.315 172.296L121.041 166.931L118.825 170.781Z" fill="white" fill-opacity="0.2"/>
</g>
<defs>
<clipPath id="clip0_8_3799">
<rect width="209" height="261" fill="white"/>
</clipPath>
</defs>
</svg>
