<svg width="8" height="14" viewBox="0 0 8 14" fill="none" xmlns="http://www.w3.org/2000/svg">
<path d="M7.78507 6.48305L1.24549 0.168703C1.10649 0.0537634 0.927685 -0.00629711 0.744813 0.000522614C0.56194 0.00734329 0.388467 0.0805407 0.25906 0.205491C0.129653 0.330441 0.0538438 0.49794 0.0467802 0.674515C0.0397166 0.851089 0.10192 1.02374 0.220959 1.15795L6.24463 6.98118L0.213693 12.7974C0.145944 12.8628 0.0922026 12.9405 0.0555371 13.0259C0.0188717 13.1114 0 13.203 0 13.2955C0 13.4824 0.0768676 13.6616 0.213693 13.7937C0.350518 13.9258 0.536093 14 0.729593 14C0.825404 14 0.920277 13.9818 1.0088 13.9464C1.09731 13.911 1.17774 13.8591 1.24549 13.7937L7.78507 7.47932C7.85317 7.41409 7.90723 7.3365 7.94412 7.251C7.98101 7.16551 8 7.0738 8 6.98118C8 6.88857 7.98101 6.79686 7.94412 6.71137C7.90723 6.62587 7.85317 6.54827 7.78507 6.48305Z" fill="#619DC9"/>
</svg>
