<svg width="8" height="14" viewBox="0 0 8 14" fill="none" xmlns="http://www.w3.org/2000/svg">
<path d="M0.214933 6.48305L6.75451 0.168703C6.89351 0.0537634 7.07231 -0.00629711 7.25519 0.000522614C7.43806 0.00734329 7.61153 0.0805407 7.74094 0.205491C7.87035 0.330441 7.94616 0.49794 7.95322 0.674515C7.96028 0.851089 7.89808 1.02374 7.77904 1.15795L1.75537 6.98118L7.78631 12.7974C7.85406 12.8628 7.9078 12.9405 7.94446 13.0259C7.98113 13.1114 8 13.203 8 13.2955C8 13.4824 7.92313 13.6616 7.78631 13.7937C7.64948 13.9258 7.46391 14 7.27041 14C7.1746 14 7.07972 13.9818 6.9912 13.9464C6.90269 13.911 6.82226 13.8591 6.75451 13.7937L0.214933 7.47932C0.146828 7.41409 0.0927706 7.3365 0.0558815 7.251C0.0189919 7.16551 0 7.0738 0 6.98118C0 6.88857 0.0189919 6.79686 0.0558815 6.71137C0.0927706 6.62587 0.146828 6.54827 0.214933 6.48305Z" fill="#619DC9"/>
</svg>
