<!-- Generated by IcoMoon.io -->
<svg version="1.1" xmlns="http://www.w3.org/2000/svg" width="1057" height="1024" viewBox="0 0 1057 1024">
<g id="icomoon-ignore">
</g>
<path d="M505.394 842.323c-6.606 0-13.213 0-19.819-3.303-105.703-33.032-290.684-165.161-290.684-462.452 0-36.335 19.819-69.368 52.852-85.884 145.342-82.581 227.923-109.006 257.652-109.006s118.916 29.729 274.168 118.916c23.123 13.213 36.335 36.335 36.335 62.761 0 0 0 0 0 0 6.606 307.2-178.374 442.632-290.684 475.665-6.606 3.303-13.213 3.303-19.819 3.303zM505.394 244.439c-13.213 0-79.277 19.819-224.619 102.4-13.213 6.606-19.819 16.516-19.819 29.729 0 257.652 155.252 373.265 244.439 399.69 95.794-26.426 251.045-145.342 247.742-412.903 0-3.303-3.303-6.606-3.303-6.606-155.252-89.187-231.226-112.31-244.439-112.31zM465.755 630.916c-9.91 0-16.516-3.303-23.123-9.91l-85.884-85.884c-13.213-13.213-13.213-33.032 0-46.245s33.032-13.213 46.245 0l62.761 62.761 148.645-148.645c13.213-13.213 33.032-13.213 46.245 0s13.213 33.032 0 46.245l-171.768 171.768c-6.606 6.606-16.516 9.91-23.123 9.91v0z"></path>
</svg>
