<svg width="49" height="48" viewBox="0 0 49 48" fill="none" xmlns="http://www.w3.org/2000/svg">
<path d="M24.5 0C14.5595 0 6.5 8.0595 6.5 18C6.5 21.9142 7.78325 25.506 9.91625 28.4475C9.9545 28.518 9.9605 28.5968 10.004 28.6643L22.004 46.6643C22.5605 47.499 23.498 48 24.5 48C25.502 48 26.4395 47.499 26.996 46.6643L38.996 28.6643C39.0402 28.5968 39.0455 28.518 39.0837 28.4475C41.2168 25.506 42.5 21.9142 42.5 18C42.5 8.0595 34.4405 0 24.5 0ZM24.5 24C21.1865 24 18.5 21.3135 18.5 18C18.5 14.6865 21.1865 12 24.5 12C27.8135 12 30.5 14.6865 30.5 18C30.5 21.3135 27.8135 24 24.5 24Z" fill="#BB3AA7"/>
</svg>
