<?xml version="1.0" encoding="UTF-8"?><svg id="a" xmlns="http://www.w3.org/2000/svg" xmlns:xlink="http://www.w3.org/1999/xlink" viewBox="0 0 100 113"><defs><style>.d{fill:url(#c);}.d,.e{stroke-width:0px;}.e{fill:url(#b);}</style><linearGradient id="b" x1="21.39" y1="103.37" x2="76.71" y2="24.47" gradientUnits="userSpaceOnUse"><stop offset="0" stop-color="#e1768a"/><stop offset="1" stop-color="#a443d1"/></linearGradient><linearGradient id="c" x1="18.61" y1="111.1" x2="94.54" y2="-1.85" gradientUnits="userSpaceOnUse"><stop offset="0" stop-color="#e1768a"/><stop offset="1" stop-color="#a341d2"/></linearGradient></defs><path class="e" d="m49.39,112.93c-23.3.5-45.96-17.54-48.98-43.25-2.51-21.33,6.59-37.29,24.5-48.61,5.74-3.62,12.09-5.57,18.6-7.11,1.59-.38,3.23-.4,4.81.19,2.97,1.11,5.17,4.47,4.72,7.22-.57,3.5-3.76,6.36-7.47,6.63-1.7.13-3.44,0-5.11.29-14.84,2.49-24.1,11.72-28.87,25.35-4.69,13.43-1.65,25.8,7.48,36.62,6.19,7.33,14.04,12.03,23.5,13.85,11.33,2.19,21.13-1.09,29.9-8.32,7.68-6.33,12.49-14.24,13.99-24.09.94-6.15.23-12.14-1.94-17.98-.62-1.67-1.21-3.38-1.52-5.13-.63-3.57,1.12-6.52,4.26-7.55,3.52-1.16,7.17.16,8.79,3.31,4.05,7.92,4.82,16.32,3.01,24.91-3.64,17.32-12.71,30.82-28.69,39.08-4.85,2.51-12.12,5.12-20.99,4.57Z"/><path class="d" d="m48.26,83.16c-7.37-.05-14.37-5.62-16.18-12.88-1.8-7.23,1.78-15.07,8.59-18.76.85-.46,1.74-.93,2.67-1.19,8.44-2.4,14.06-8.21,18.48-15.36,4.63-7.5,7.62-15.59,8.39-24.44.18-2.11.69-4.16,1.86-6,2.45-3.83,6.07-5.09,10.34-4.29,4.56.85,7.91,3.45,9.27,8.02,1.27,4.26-.63,7.62-3.65,10.43-2.32,2.16-5.2,3.6-7.62,5.67-7.84,6.7-12.66,15.01-14.58,25.17-.86,4.53-1.2,8.96-.57,13.53,1.56,11.43-5.88,20.18-16.99,20.11Z"/></svg>